<svg xmlns="http://www.w3.org/2000/svg" xmlns:xlink="http://www.w3.org/1999/xlink" xmlns:inkscape="http://www.inkscape.org/namespaces/inkscape" version="1.1" width="98" height="94" viewBox="0 0 98 94">
<defs>
<path id="font_1_104" d="M.68499758 .45214845 .66600039 .6767578H.054992677L.035995485 .45214845H.06098938C.07499695 .6128235 .08999634 .64575198 .24099732 .64575198 .25898744 .64575198 .2849884 .64575198 .29499818 .64375308 .31599427 .6397705 .31599427 .6287842 .31599427 .60583499V.07901001C.31599427 .04499817 .31599427 .0309906 .21099854 .0309906H.17098999V0C.21199036 .0029907227 .31399537 .0029907227 .3600006 .0029907227 .4059906 .0029907227 .5089874 .0029907227 .5499878 0V.0309906H.5099945C.40499879 .0309906 .40499879 .04499817 .40499879 .07901001V.60583499C.40499879 .62579348 .40499879 .6397705 .4229889 .64375308 .43399049 .64575198 .46099855 .64575198 .47999574 .64575198 .6309967 .64575198 .6459961 .6128235 .6599884 .45214845H.68499758Z"/>
<path id="font_1_63" d="M.5349884 0V.0309906C.48298646 .0309906 .45799256 .0309906 .45700074 .061019899V.25221253C.45700074 .3383026 .45700074 .36932374 .42599488 .405365 .4119873 .42237855 .3789978 .4423828 .32099916 .4423828 .23699951 .4423828 .19299317 .38233949 .1769867 .34629823H.17599488V.69433596L.03199768 .6826172V.6516113C.101989749 .6516113 .10998535 .64463809 .10998535 .59580996V.076034549C.10998535 .0309906 .09899902 .0309906 .03199768 .0309906V0L.14498902 .0029907227 .25698854 0V.0309906C.18998719 .0309906 .1789856 .0309906 .1789856 .076034549V.2602234C.1789856 .36431886 .25 .42037965 .31399537 .42037965 .3769989 .42037965 .3880005 .36631776 .3880005 .30926515V.076034549C.3880005 .0309906 .3769989 .0309906 .30999757 .0309906V0L.4229889 .0029907227 .5349884 0Z"/>
<path id="font_1_50" d="M.4149933 .11933899C.4149933 .12934876 .40699769 .13134766 .4019928 .13134766 .3929901 .13134766 .3909912 .12535095 .3889923 .11734009 .35398866 .014251709 .2639923 .014251709 .2539978 .014251709 .20399475 .014251709 .1639862 .044281007 .14099121 .08131409 .11099243 .12934876 .11099243 .19540406 .11099243 .23144531H.3899994C.4119873 .23144531 .4149933 .23144531 .4149933 .2524414 .4149933 .35131837 .36099244 .4482422 .23599243 .4482422 .11999512 .4482422 .027999878 .34532167 .027999878 .22042847 .027999878 .08631897 .1329956-.0107421879 .24798584-.0107421879 .36999513-.0107421879 .4149933 .10032654 .4149933 .11933899M.34899903 .2524414H.11199951C.117996219 .40126039 .20199585 .426239 .23599243 .426239 .33898927 .426239 .34899903 .2913971 .34899903 .2524414Z"/>
<path id="font_1_47" d="M.5269928 0V.0309906C.45700074 .0309906 .44898988 .038009645 .44898988 .0871582V.69433596L.30499269 .6826172V.6516113C.375 .6516113 .3829956 .64463809 .3829956 .59580996V.38035584C.35398866 .41636659 .31098939 .4423828 .25698854 .4423828 .13899231 .4423828 .033996583 .3443451 .033996583 .21531677 .033996583 .088272098 .13198853-.0107421879 .24598694-.0107421879 .30999757-.0107421879 .35499574 .023254395 .37998963 .055267335V-.0107421879L.5269928 0M.37998963 .117996219C.37998963 .099990848 .37998963 .09799194 .36898805 .08099365 .33898927 .033218385 .2939911 .011245728 .25099183 .011245728 .20599365 .011245728 .16999817 .037216188 .1459961 .075164798 .11999512 .1161499 .116989139 .17320252 .116989139 .21421814 .116989139 .25125123 .11898804 .31129457 .147995 .35632325 .16899109 .38734437 .20698548 .42037965 .26098634 .42037965 .29599 .42037965 .33799745 .405365 .36898805 .3603363 .37998963 .34332276 .37998963 .34132386 .37998963 .32330323V.117996219Z"/>
<path id="font_1_96" d="M.3639984 .38137818C.3639984 .41337586 .33299256 .4423828 .2899933 .4423828 .21699524 .4423828 .18099976 .37538148 .16699219 .3323822V.4423828L.027999878 .43066407V.3996582C.09799194 .3996582 .10598755 .39266969 .10598755 .34370423V.07595825C.10598755 .0309906 .09498596 .0309906 .027999878 .0309906V0L.14199829 .0029907227C.18199158 .0029907227 .22898865 .0029907227 .2689972 0V.0309906H.24798584C.17399597 .0309906 .17199707 .04197693 .17199707 .07795715V.23181153C.17199707 .33137513 .21398926 .42037965 .2899933 .42037965 .29699708 .42037965 .29899598 .42037965 .30099488 .41937257 .2979889 .41838075 .27799989 .40637208 .27799989 .3803711 .27799989 .35237123 .29899598 .33737184 .32099916 .33737184 .33898927 .33737184 .3639984 .3493805 .3639984 .38137818Z"/>
<path id="font_1_66" d="M.24699402 0V.0309906C.18099976 .0309906 .1769867 .035995485 .1769867 .075042728V.4423828L.036987306 .43066407V.3996582C.101989749 .3996582 .11099243 .3936615 .11099243 .3447113V.07595825C.11099243 .0309906 .099990848 .0309906 .032989503 .0309906V0L.14299011 .0029907227C.17799378 .0029907227 .21299744 .0009918213 .24699402 0M.19198609 .603775C.19198609 .6307678 .16899109 .6567688 .13899231 .6567688 .10499573 .6567688 .084991458 .6287689 .084991458 .603775 .084991458 .57676699 .10798645 .55078127 .13798523 .55078127 .17199707 .55078127 .19198609 .5787811 .19198609 .603775Z"/>
<path id="font_1_112" d="M.5079956 .3996582V.43066407C.4850006 .4286499 .45599366 .42765809 .43299867 .42765809L.34599305 .43066407V.3996582C.3829956 .39865113 .3939972 .37568666 .3939972 .35671998 .3939972 .34773255 .3919983 .34373475 .3880005 .3327484L.28599549 .078125 .17399597 .35671998C.16799927 .3697052 .16799927 .37368775 .16799927 .37368775 .16799927 .3996582 .20698548 .3996582 .22499085 .3996582V.43066407L.115997318 .42765809C.08898926 .42765809 .04899597 .4286499 .018997193 .43066407V.3996582C.08198547 .3996582 .085998538 .3936615 .09899902 .36271668L.24299622 .008224487C.24899292-.0057525637 .25099183-.0107421879 .2639923-.0107421879 .2769928-.0107421879 .2809906-.0017700195 .2849884 .008224487L.41600038 .3327484C.4249878 .3557129 .44198609 .39865113 .5079956 .3996582Z"/>
<path id="font_1_28" d="M.48298646 .08912659V.14511109H.45799256V.08912659C.45799256 .03112793 .43299867 .025131226 .42199708 .025131226 .3889923 .025131226 .3849945 .070129398 .3849945 .07511902V.27508546C.3849945 .31707765 .3849945 .3560791 .34899903 .39312745 .30999757 .43223573 .2599945 .4482422 .21199036 .4482422 .12998963 .4482422 .06098938 .40115357 .06098938 .335083 .06098938 .30508424 .08099365 .28808595 .10699463 .28808595 .1349945 .28808595 .15299988 .30807496 .15299988 .33407594 .15299988 .3460846 .147995 .37908937 .101989749 .38008119 .1289978 .41519166 .17799378 .426239 .20999146 .426239 .25898744 .426239 .31599427 .38710023 .31599427 .29808045V.26107789C.2649994 .25808717 .19499207 .25508119 .13198853 .22509766 .056991579 .19110108 .03199768 .13911438 .03199768 .09512329 .03199768 .014251709 .1289978-.0107421879 .19198609-.0107421879 .2579956-.0107421879 .3039856 .029251099 .32299806 .07624817 .32699586 .036132814 .35398866-.005859375 .40098573-.005859375 .42199708-.005859375 .48298646 .008132935 .48298646 .08912659M.31599427 .14013672C.31599427 .04525757 .24398804 .011245728 .19898987 .011245728 .1499939 .011245728 .10899353 .04624939 .10899353 .09625244 .10899353 .15124512 .15098572 .23425293 .31599427 .24024964V.14013672Z"/>
<path id="font_1_105" d="M.33198548 .12385559V.18066406H.30699159V.12585449C.30699159 .052108766 .2769928 .014251709 .23999024 .014251709 .17298889 .014251709 .17298889 .10491943 .17298889 .12187195V.3996582H.31599427V.43066407H.17298889V.6142578H.147995C.14698792 .5324249 .116989139 .42565919 .018997193 .42166139V.3996582H.10398865V.12408447C.10398865 .0012512207 .19699097-.0107421879 .23298645-.0107421879 .3039856-.0107421879 .33198548 .060180665 .33198548 .12408447V.12385559Z"/>
<path id="font_1_98" d="M.3600006 .12823487C.3600006 .18122864 .32998658 .21122742 .31799317 .22323609 .2849884 .25523377 .24598694 .26322938 .20399475 .27124024 .147995 .28224183 .08099365 .29522706 .08099365 .35324098 .08099365 .38822938 .10699463 .42922975 .19299317 .42922975 .30299378 .42922975 .30799867 .3392334 .30999757 .30822755 .31098939 .2992401 .32199098 .2992401 .32199098 .2992401 .33499146 .2992401 .33499146 .30422975 .33499146 .32322694V.4242401C.33499146 .4412384 .33499146 .4482422 .32398988 .4482422 .31900025 .4482422 .31698609 .4482422 .3039856 .43623353 .30099488 .43223573 .29100038 .42323304 .2869873 .42022706 .24899292 .4482422 .20799256 .4482422 .19299317 .4482422 .070999149 .4482422 .032989503 .38124085 .032989503 .3252411 .032989503 .29023744 .04899597 .26223756 .07598877 .24023438 .10798645 .2142334 .13598633 .2082367 .20799256 .19422913 .22999573 .19021607 .31199647 .17422486 .31199647 .10221863 .31199647 .051223756 .2769928 .011245728 .19898987 .011245728 .114990238 .011245728 .07899475 .068222049 .05999756 .1532135 .056991579 .16621399 .055999757 .17021179 .04598999 .17021179 .032989503 .17021179 .032989503 .16322327 .032989503 .1452179V.013214111C.032989503-.003753662 .032989503-.0107421879 .04399109-.0107421879 .04899597-.0107421879 .049987794-.009750366 .068984989 .009246826 .070999149 .011245728 .070999149 .013214111 .08898926 .032226564 .1329956-.009750366 .17799378-.0107421879 .19898987-.0107421879 .31399537-.0107421879 .3600006 .05621338 .3600006 .1282196V.12823487Z"/>
<path id="font_2_1" d="M.57099917 .66430667C.57199099 .66630557 .57499697 .67930606 .57499697 .68029788 .57499697 .68530276 .57099917 .6943054 .5589905 .6943054 .5389862 .6943054 .45599366 .6863098 .43099977 .6843109 .4229889 .68330386 .40899659 .682312 .40899659 .66130068 .40899659 .64730837 .4229889 .64730837 .43499757 .64730837 .48298646 .64730837 .48298646 .64030459 .48298646 .63230898 .48298646 .62532046 .48098756 .61932376 .47898866 .61032107L.42199708 .38238526C.40098573 .41540528 .36698915 .44140626 .31900025 .44140626 .19099427 .44140626 .06098938 .300354 .06098938 .15628052 .06098938 .059249879 .12599182-.009765625 .21199036-.009765625 .2659912-.009765625 .31399537 .021224976 .35398866 .0602417 .37298585 .00022888184 .43099977-.009765625 .45700074-.009765625 .49299623-.009765625 .5179901 .01222229 .5359955 .04324341 .55799868 .08226013 .57099917 .13928223 .57099917 .14328003 .57099917 .15628052 .55799868 .15628052 .5549927 .15628052 .54100039 .15628052 .5399933 .15228272 .5329895 .12527466 .5209961 .07725525 .5019989 .018234253 .45999146 .018234253 .43399049 .018234253 .4269867 .040237428 .4269867 .06724548 .4269867 .086257938 .42900086 .09526062 .43199159 .10826111L.57099917 .66430667M.35798646 .12527466C.35099793 .09725952 .32899476 .07725525 .30699159 .058242799 .2979889 .050247194 .2579956 .018234253 .21499634 .018234253 .17799378 .018234253 .14199829 .04423523 .14199829 .11526489 .14199829 .16828919 .17098999 .27833558 .19400025 .31835938 .23999024 .39839173 .29100038 .4133911 .31900025 .4133911 .3889923 .4133911 .4079895 .33737184 .4079895 .32635499 .4079895 .32235719 .4059906 .3153534 .40499879 .3123474L.35798646 .12527466Z"/>
<path id="font_2_3" d="M.55599978 .37738038C.55999758 .39138795 .55999758 .39338685 .55999758 .3993988 .55999758 .41940309 .5439911 .43139649 .5269928 .43139649 .5159912 .43139649 .49699403 .4263916 .48599244 .4073944 .48298646 .4013977 .47499085 .36938478 .46998597 .34936524L.44898988 .2663269C.44299317 .24232483 .4119873 .11627197 .40899659 .105270389 .4079895 .105270389 .3639984 .018234253 .28599549 .018234253 .21798706 .018234253 .21798706 .08325195 .21798706 .101257327 .21798706 .1552887 .24099732 .2183075 .2709961 .29534913 .2829895 .32736207 .28799439 .33937074 .28799439 .35636903 .28799439 .40438844 .24699402 .44140626 .19299317 .44140626 .09199524 .44140626 .04699707 .3053589 .04699707 .28834535 .04699707 .27534486 .06098938 .27534486 .06399536 .27534486 .07798767 .27534486 .07899475 .28033448 .08198547 .29135133 .10699463 .3743744 .1499939 .4133911 .18998719 .4133911 .20698548 .4133911 .21499634 .40238954 .21499634 .37838746 .21499634 .3553772 .20599365 .33335877 .20098877 .32035829 .15299988 .19830323 .14299011 .1612854 .14299011 .117263797 .14299011 .1002655 .14299011 .053237916 .18199158 .021224976 .21299744-.004776001 .25498963-.009765625 .28199769-.009765625 .32199098-.009765625 .35798646 .0052337648 .3909912 .035232545 .37799073-.01977539 .36698915-.061782838 .32499696-.11178589 .2979889-.14279175 .2579956-.17610169 .20498657-.17610169 .19799805-.17610169 .15098572-.17610169 .12998963-.14279175 .18399048-.13679505 .18399048-.08879089 .18399048-.08778381 .18399048-.055786134 .15499878-.04978943 .14498902-.04978943 .11999512-.04978943 .08699036-.0697937 .08699036-.11578369 .08699036-.1670227 .1349945-.20410156 .20599365-.20410156 .30699159-.20410156 .42999269-.12579346 .46099855-.00077819827L.55599978 .37738038Z"/>
<path id="font_2_2" d="M.24899292 .10601807C.23899842 .072021488 .20599365 .018234253 .15499878 .018234253 .1519928 .018234253 .12199402 .018234253 .100997928 .03215027 .14199829 .04508972 .14498902 .08100891 .14498902 .087020877 .14498902 .10900879 .12799073 .12402344 .10499573 .12402344 .07699585 .12402344 .04798889 .10002136 .04798889 .0630188 .04798889 .01322937 .10398865-.009765625 .15299988-.009765625 .19898987-.009765625 .23999024 .019226075 .2649994 .061019899 .2889862 .008224487 .34399415-.009765625 .38398744-.009765625 .49899293-.009765625 .55999758 .11502075 .55999758 .14305115 .55999758 .15608216 .5469971 .15608216 .5439911 .15608216 .5299988 .15608216 .5289917 .15107727 .5249939 .13905335 .5039978 .07002258 .44400025 .018234253 .3880005 .018234253 .34799195 .018234253 .32699586 .04508972 .32699586 .08302307 .32699586 .10900879 .35099793 .20018006 .3789978 .31140138 .39898683 .38841249 .44400025 .4133911 .47698976 .4133911 .47898866 .4133911 .5099945 .4133911 .5309906 .39941407 .49899293 .39041139 .4869995 .3624115 .4869995 .34440614 .4869995 .32240296 .5039978 .30740357 .5269928 .30740357 .5499878 .30740357 .58299258 .32640077 .58299258 .3684082 .58299258 .4243927 .5189972 .44140626 .47898866 .44140626 .42900086 .44140626 .3889923 .4084015 .36698915 .3704071 .34899903 .4113922 .30299378 .44140626 .24699402 .44140626 .1349945 .44140626 .070999149 .31840516 .070999149 .2883606 .070999149 .27534486 .084991458 .27534486 .08799744 .27534486 .100997928 .27534486 .101989749 .27934266 .10699463 .29237367 .13198853 .3704071 .19499207 .4133911 .24398804 .4133911 .2769928 .4133911 .3039856 .395401 .3039856 .3474121 .3039856 .32740785 .2919922 .27734376 .2829895 .24327088L.24899292 .10601807Z"/>
</defs>
<path transform="matrix(1.00002,0,0,-1.00003,3.095665,91.09426)" stroke-width=".3985" stroke-linecap="butt" stroke-miterlimit="10" stroke-linejoin="miter" fill="none" stroke="#000000" d="M0 0H85.04128M0 8.50412H85.04128M0 17.00824H85.04128M0 25.51237H85.04128M0 34.0165H85.04128M0 42.52063H85.04128M0 51.02477H85.04128M0 59.52888H85.04128M0 68.03302H85.04128M0 76.53716H85.04128M0 85.0383H85.04128M0 0V85.04128M8.50412 0V85.04128M17.00824 0V85.04128M25.51237 0V85.04128M34.0165 0V85.04128M42.52063 0V85.04128M51.02477 0V85.04128M59.52888 0V85.04128M68.03302 0V85.04128M76.53716 0V85.04128M85.0383 0V85.04128M85.04128 85.04128"/>
<path transform="matrix(1.00002,0,0,-1.00003,3.095665,91.09426)" stroke-width=".3985" stroke-linecap="butt" stroke-miterlimit="10" stroke-linejoin="miter" fill="none" stroke="#000000" d="M0 0H88.83507"/>
<path transform="matrix(1.00002,0,0,-1.00003,91.93251,91.09426)" stroke-width=".31879" stroke-linecap="round" stroke-linejoin="round" fill="none" stroke="#000000" d="M-1.19551 1.59401C-1.09587 .99626 0 .09961 .29886 0 0-.09961-1.09587-.99626-1.19551-1.59401"/>
<path transform="matrix(1.00002,0,0,-1.00003,3.095665,91.09426)" stroke-width=".3985" stroke-linecap="butt" stroke-miterlimit="10" stroke-linejoin="miter" fill="none" stroke="#000000" d="M0 0V88.83507"/>
<path transform="matrix(0,-1.00003,-1.00002,-0,3.095665,2.2565232)" stroke-width=".31879" stroke-linecap="round" stroke-linejoin="round" fill="none" stroke="#000000" d="M-1.19551 1.59401C-1.09587 .99626 0 .09961 .29886 0 0-.09961-1.09587-.99626-1.19551-1.59401"/>
<path transform="matrix(1.00002,0,0,-1.00003,3.095665,91.09426)" stroke-width=".3985" stroke-linecap="butt" stroke-miterlimit="10" stroke-linejoin="miter" fill="none" stroke="#000000" d="M17.00824 17.00824V68.03302H68.03302V17.00824ZM68.03302 68.03302"/>
<use data-text="T" xlink:href="#font_1_104" transform="matrix(9.962799,0,0,-9.962899,10.867821,79.886928)"/>
<use data-text="h" xlink:href="#font_1_63" transform="matrix(9.962799,0,0,-9.962899,18.060967,79.886928)"/>
<use data-text="e" xlink:href="#font_1_50" transform="matrix(9.962799,0,0,-9.962899,23.600289,79.886928)"/>
<use data-text="d" xlink:href="#font_1_47" transform="matrix(9.962799,0,0,-9.962899,31.33142,79.886928)"/>
<use data-text="e" xlink:href="#font_1_50" transform="matrix(9.962799,0,0,-9.962899,36.870737,79.886928)"/>
<use data-text="r" xlink:href="#font_1_96" transform="matrix(9.962799,0,0,-9.962899,41.29422,79.886928)"/>
<use data-text="i" xlink:href="#font_1_66" transform="matrix(9.962799,0,0,-9.962899,45.19964,79.886928)"/>
<use data-text="v" xlink:href="#font_1_112" transform="matrix(9.962799,0,0,-9.962899,47.9693,79.886928)"/>
<use data-text="a" xlink:href="#font_1_28" transform="matrix(9.962799,0,0,-9.962899,52.6817,79.886928)"/>
<use data-text="t" xlink:href="#font_1_105" transform="matrix(9.962799,0,0,-9.962899,57.663087,79.886928)"/>
<use data-text="i" xlink:href="#font_1_66" transform="matrix(9.962799,0,0,-9.962899,61.538637,79.886928)"/>
<use data-text="v" xlink:href="#font_1_112" transform="matrix(9.962799,0,0,-9.962899,64.30829,79.886928)"/>
<use data-text="e" xlink:href="#font_1_50" transform="matrix(9.962799,0,0,-9.962899,69.2897,79.886928)"/>
<use data-text="i" xlink:href="#font_1_66" transform="matrix(9.962799,0,0,-9.962899,77.02084,79.886928)"/>
<use data-text="s" xlink:href="#font_1_98" transform="matrix(9.962799,0,0,-9.962899,79.79051,79.886928)"/>
<use data-text="d" xlink:href="#font_2_1" transform="matrix(6.97394,0,0,-6.9740097,88.35239,75.44279)"/>
<use data-text="y" xlink:href="#font_2_3" transform="matrix(6.97394,0,0,-6.9740097,92.4949,75.44279)"/>
<path transform="matrix(1.00002,0,0,-1.00003,-72.22984,4.7906649)" stroke-width=".3985" stroke-linecap="butt" stroke-miterlimit="10" stroke-linejoin="miter" fill="none" stroke="#000000" d="M160.466-72.604H169.131"/>
<use data-text="d" xlink:href="#font_2_1" transform="matrix(6.97394,0,0,-6.9740097,88.23938,83.32302)"/>
<use data-text="x" xlink:href="#font_2_2" transform="matrix(6.97394,0,0,-6.9740097,92.3819,83.32302)"/>
</svg>
