<svg xmlns="http://www.w3.org/2000/svg" id="prefig-test2-figure" width="310" height="310" viewBox="0 0 310 310">
  <defs>
    <clipPath id="prefig-test2-clipPath-0">
      <rect x="5.0" y="5.0" width="300.0" height="300.0"/>
    </clipPath>
    <clipPath id="prefig-test2-clipPath-1">
      <rect x="5.0" y="5.0" width="300.0" height="300.0"/>
    </clipPath>
    <marker id="prefig-test2-arrow-head-end-4_None_24_60-blue" markerWidth="18.0" markerHeight="16.0" markerUnits="userSpaceOnUse" orient="auto-start-reverse" refX="13.1" refY="8.0">
      <path d="M 18.0 8.0L 0.0 16.0L 3.5 10.0L 3.5 6.0L 0.0 0.0Z" fill="blue" stroke="none"/>
    </marker>
    <marker id="prefig-test2-arrow-head-end-4_None_24_60-blue-outline" markerWidth="22.0" markerHeight="20.0" markerUnits="userSpaceOnUse" orient="auto-start-reverse" refX="15.1" refY="10.0">
      <path d="M 20.8 11.8 L 2.8 19.8 A 2 2 0 0 1 0.0 18.0 L 0.0 2.0 A 2 2 0 0 1 2.8 0.2 L 20.8 8.2 A 2 2 0 0 1 20.8 11.8 Z" fill="white" stroke="none"/>
    </marker>
    <marker id="prefig-test2-arrow-head-end-4_None_24_60-red" markerWidth="18.0" markerHeight="16.0" markerUnits="userSpaceOnUse" orient="auto-start-reverse" refX="13.1" refY="8.0">
      <path d="M 18.0 8.0L 0.0 16.0L 3.5 10.0L 3.5 6.0L 0.0 0.0Z" fill="red" stroke="none"/>
    </marker>
    <marker id="prefig-test2-arrow-head-end-4_None_24_60-red-outline" markerWidth="22.0" markerHeight="20.0" markerUnits="userSpaceOnUse" orient="auto-start-reverse" refX="15.1" refY="10.0">
      <path d="M 20.8 11.8 L 2.8 19.8 A 2 2 0 0 1 0.0 18.0 L 0.0 2.0 A 2 2 0 0 1 2.8 0.2 L 20.8 8.2 A 2 2 0 0 1 20.8 11.8 Z" fill="white" stroke="none"/>
    </marker>
  </defs>
  <g id="prefig-test2-axes" stroke="black" stroke-width="2">
    <line id="prefig-test2-line-0" x1="5.0" y1="223.2" x2="305.0" y2="223.2" stroke="black" stroke-width="2"/>
    <line id="prefig-test2-line-1" x1="86.8" y1="305.0" x2="86.8" y2="5.0" stroke="black" stroke-width="2"/>
  </g>
  <path id="prefig-test2-path-0" stroke="#ccc" stroke-width="2" fill="none" d="M 168.6 305.0 L 5.0 141.4 M 250.5 305.0 L 5.0 59.5 M 305.0 277.7 L 32.3 5.0 M 305.0 195.9 L 114.1 5.0 M 305.0 114.1 L 195.9 5.0 M 305.0 32.3 L 277.7 5.0 M 86.8 305.0 L 5.0 223.2 M 5.0 305.0 L 5.0 305.0 M 5.0 264.1 L 305.0 114.1 M 5.0 223.2 L 305.0 73.2 M 5.0 182.3 L 305.0 32.3 M 5.0 141.4 L 277.7 5.0 M 5.0 100.5 L 195.9 5.0 M 5.0 59.5 L 114.1 5.0 M 5.0 18.6 L 32.3 5.0 M 5.0 305.0 L 305.0 155.0 M 86.8 305.0 L 305.0 195.9 M 168.6 305.0 L 305.0 236.8 M 250.5 305.0 L 305.0 277.7"/>
  <g id="prefig-test2-g-0">
    <path id="prefig-test2-path-1" stroke="blue" stroke-width="4" fill="none" d="M 86.8 223.2 L 141.4 195.9" marker-end="url(#prefig-test2-arrow-head-end-4_None_24_60-blue)"/>
    <path id="prefig-test2-path-2" stroke="blue" stroke-width="4" fill="none" d="M 86.8 223.2 L 59.5 195.9" marker-end="url(#prefig-test2-arrow-head-end-4_None_24_60-blue)"/>
    <path id="prefig-test2-path-3" stroke="red" stroke-width="4" fill="none" d="M 86.8 223.2 L 195.9 86.8" marker-end="url(#prefig-test2-arrow-head-end-4_None_24_60-red)"/>
  </g>
  <g id="prefig-test2-label-0" transform="translate(150.4,195.9) translate(0.0,-9.0)">
    <rect x="-6" y="-6" width="28.68" height="30.024" stroke="none" fill="white"/>
    <g id="prefig-test2-g-1">
      <svg xmlns:xlink="http://www.w3.org/1999/xlink" style="vertical-align: -2.712px" width="16.680px" height="18.024px" role="img" focusable="false" viewBox="0 -846 921.6 996" x="0.0" y="0.0">
        <defs>
          <path id="prefig-test2-MJX-2-TEX-I-1D463" d="M173 380Q173 405 154 405Q130 405 104 376T61 287Q60 286 59 284T58 281T56 279T53 278T49 278T41 278H27Q21 284 21 287Q21 294 29 316T53 368T97 419T160 441Q202 441 225 417T249 361Q249 344 246 335Q246 329 231 291T200 202T182 113Q182 86 187 69Q200 26 250 26Q287 26 319 60T369 139T398 222T409 277Q409 300 401 317T383 343T365 361T357 383Q357 405 376 424T417 443Q436 443 451 425T467 367Q467 340 455 284T418 159T347 40T241 -11Q177 -11 139 22Q102 54 102 117Q102 148 110 181T151 298Q173 362 173 380Z"/>
          <path id="prefig-test2-MJX-2-TEX-N-20D7" d="M377 694Q377 702 382 708T397 714Q404 714 409 709Q414 705 419 690Q429 653 460 633Q471 626 471 615Q471 606 468 603T454 594Q411 572 379 531Q377 529 374 525T369 519T364 517T357 516Q350 516 344 521T337 536Q337 555 384 595H213L42 596Q29 605 29 615Q29 622 42 635H401Q377 673 377 694Z"/>
          <path id="prefig-test2-MJX-2-TEX-N-31" d="M213 578L200 573Q186 568 160 563T102 556H83V602H102Q149 604 189 617T245 641T273 663Q275 666 285 666Q294 666 302 660V361L303 61Q310 54 315 52T339 48T401 46H427V0H416Q395 3 257 3Q121 3 100 0H88V46H114Q136 46 152 46T177 47T193 50T201 52T207 57T213 61V578Z"/>
        </defs>
        <g stroke="currentColor" fill="currentColor" stroke-width="0" transform="scale(1,-1)">
          <g data-mml-node="math">
            <g data-mml-node="msub" data-semantic-type="subscript" data-semantic-role="latinletter" data-semantic-id="4" data-semantic-children="2,3" data-semantic-speech="ModifyingAbove v With right arrow Subscript 1">
              <g data-mml-node="TeXAtom" data-mjx-texclass="ORD">
                <g data-mml-node="TeXAtom" data-mjx-texclass="ORD">
                  <g data-mml-node="mover" data-semantic-type="overscore" data-semantic-role="latinletter" data-semantic-id="2" data-semantic-children="0,1" data-semantic-parent="4" data-semantic-attributes="texclass:ORD" data-semantic-speech="ModifyingAbove v With right arrow" data-semantic-prefix="Base">
                    <g data-mml-node="mi" data-semantic-type="identifier" data-semantic-role="latinletter" data-semantic-font="italic" data-semantic-annotation="clearspeak:simple" data-semantic-id="0" data-semantic-parent="2" data-semantic-speech="v" data-semantic-prefix="Base">
                      <use data-c="1D463" xlink:href="#prefig-test2-MJX-2-TEX-I-1D463"/>
                    </g>
                    <g data-mml-node="mo" data-semantic-type="relation" data-semantic-role="overaccent" data-semantic-annotation="accent:arrow" data-semantic-id="1" data-semantic-parent="2" data-semantic-speech="right arrow" data-semantic-prefix="Overscript" transform="translate(270.3,32) translate(-250 0)">
                      <use data-c="20D7" xlink:href="#prefig-test2-MJX-2-TEX-N-20D7"/>
                    </g>
                  </g>
                </g>
              </g>
              <g data-mml-node="mn" transform="translate(518,-150) scale(0.707)" data-semantic-type="number" data-semantic-role="integer" data-semantic-font="normal" data-semantic-annotation="clearspeak:simple" data-semantic-id="3" data-semantic-parent="4" data-semantic-speech="1" data-semantic-prefix="Subscript">
                <use data-c="31" xlink:href="#prefig-test2-MJX-2-TEX-N-31"/>
              </g>
            </g>
          </g>
        </g>
      </svg>
    </g>
  </g>
  <g id="prefig-test2-label-1" transform="translate(59.5,186.9) translate(-8.3,-18.0)">
    <rect x="-6" y="-6" width="28.68" height="30.024" stroke="none" fill="white"/>
    <g id="prefig-test2-g-2">
      <svg xmlns:xlink="http://www.w3.org/1999/xlink" style="vertical-align: -2.712px" width="16.680px" height="18.024px" role="img" focusable="false" viewBox="0 -846 921.6 996" x="0.0" y="0.0">
        <defs>
          <path id="prefig-test2-MJX-3-TEX-I-1D463" d="M173 380Q173 405 154 405Q130 405 104 376T61 287Q60 286 59 284T58 281T56 279T53 278T49 278T41 278H27Q21 284 21 287Q21 294 29 316T53 368T97 419T160 441Q202 441 225 417T249 361Q249 344 246 335Q246 329 231 291T200 202T182 113Q182 86 187 69Q200 26 250 26Q287 26 319 60T369 139T398 222T409 277Q409 300 401 317T383 343T365 361T357 383Q357 405 376 424T417 443Q436 443 451 425T467 367Q467 340 455 284T418 159T347 40T241 -11Q177 -11 139 22Q102 54 102 117Q102 148 110 181T151 298Q173 362 173 380Z"/>
          <path id="prefig-test2-MJX-3-TEX-N-20D7" d="M377 694Q377 702 382 708T397 714Q404 714 409 709Q414 705 419 690Q429 653 460 633Q471 626 471 615Q471 606 468 603T454 594Q411 572 379 531Q377 529 374 525T369 519T364 517T357 516Q350 516 344 521T337 536Q337 555 384 595H213L42 596Q29 605 29 615Q29 622 42 635H401Q377 673 377 694Z"/>
          <path id="prefig-test2-MJX-3-TEX-N-32" d="M109 429Q82 429 66 447T50 491Q50 562 103 614T235 666Q326 666 387 610T449 465Q449 422 429 383T381 315T301 241Q265 210 201 149L142 93L218 92Q375 92 385 97Q392 99 409 186V189H449V186Q448 183 436 95T421 3V0H50V19V31Q50 38 56 46T86 81Q115 113 136 137Q145 147 170 174T204 211T233 244T261 278T284 308T305 340T320 369T333 401T340 431T343 464Q343 527 309 573T212 619Q179 619 154 602T119 569T109 550Q109 549 114 549Q132 549 151 535T170 489Q170 464 154 447T109 429Z"/>
        </defs>
        <g stroke="currentColor" fill="currentColor" stroke-width="0" transform="scale(1,-1)">
          <g data-mml-node="math">
            <g data-mml-node="msub" data-semantic-type="subscript" data-semantic-role="latinletter" data-semantic-id="4" data-semantic-children="2,3" data-semantic-speech="ModifyingAbove v With right arrow Subscript 2">
              <g data-mml-node="TeXAtom" data-mjx-texclass="ORD">
                <g data-mml-node="TeXAtom" data-mjx-texclass="ORD">
                  <g data-mml-node="mover" data-semantic-type="overscore" data-semantic-role="latinletter" data-semantic-id="2" data-semantic-children="0,1" data-semantic-parent="4" data-semantic-attributes="texclass:ORD" data-semantic-speech="ModifyingAbove v With right arrow" data-semantic-prefix="Base">
                    <g data-mml-node="mi" data-semantic-type="identifier" data-semantic-role="latinletter" data-semantic-font="italic" data-semantic-annotation="clearspeak:simple" data-semantic-id="0" data-semantic-parent="2" data-semantic-speech="v" data-semantic-prefix="Base">
                      <use data-c="1D463" xlink:href="#prefig-test2-MJX-3-TEX-I-1D463"/>
                    </g>
                    <g data-mml-node="mo" data-semantic-type="relation" data-semantic-role="overaccent" data-semantic-annotation="accent:arrow" data-semantic-id="1" data-semantic-parent="2" data-semantic-speech="right arrow" data-semantic-prefix="Overscript" transform="translate(270.3,32) translate(-250 0)">
                      <use data-c="20D7" xlink:href="#prefig-test2-MJX-3-TEX-N-20D7"/>
                    </g>
                  </g>
                </g>
              </g>
              <g data-mml-node="mn" transform="translate(518,-150) scale(0.707)" data-semantic-type="number" data-semantic-role="integer" data-semantic-font="normal" data-semantic-annotation="clearspeak:simple" data-semantic-id="3" data-semantic-parent="4" data-semantic-speech="2" data-semantic-prefix="Subscript">
                <use data-c="32" xlink:href="#prefig-test2-MJX-3-TEX-N-32"/>
              </g>
            </g>
          </g>
        </g>
      </svg>
    </g>
  </g>
  <g id="prefig-test2-label-2" transform="translate(195.9,77.8) translate(-36.8,-18.0)">
    <rect x="-6" y="-6" width="85.584" height="30.024" stroke="none" fill="white"/>
    <g id="prefig-test2-g-3">
      <svg xmlns:xlink="http://www.w3.org/1999/xlink" style="vertical-align: -2.712px" width="73.584px" height="18.024px" role="img" focusable="false" viewBox="0 -846 4065.6 996" x="0.0" y="0.0">
        <defs>
          <path id="prefig-test2-MJX-4-TEX-N-33" d="M127 463Q100 463 85 480T69 524Q69 579 117 622T233 665Q268 665 277 664Q351 652 390 611T430 522Q430 470 396 421T302 350L299 348Q299 347 308 345T337 336T375 315Q457 262 457 175Q457 96 395 37T238 -22Q158 -22 100 21T42 130Q42 158 60 175T105 193Q133 193 151 175T169 130Q169 119 166 110T159 94T148 82T136 74T126 70T118 67L114 66Q165 21 238 21Q293 21 321 74Q338 107 338 175V195Q338 290 274 322Q259 328 213 329L171 330L168 332Q166 335 166 348Q166 366 174 366Q202 366 232 371Q266 376 294 413T322 525V533Q322 590 287 612Q265 626 240 626Q208 626 181 615T143 592T132 580H135Q138 579 143 578T153 573T165 566T175 555T183 540T186 520Q186 498 172 481T127 463Z"/>
          <path id="prefig-test2-MJX-4-TEX-N-2062" d=""/>
          <path id="prefig-test2-MJX-4-TEX-I-1D463" d="M173 380Q173 405 154 405Q130 405 104 376T61 287Q60 286 59 284T58 281T56 279T53 278T49 278T41 278H27Q21 284 21 287Q21 294 29 316T53 368T97 419T160 441Q202 441 225 417T249 361Q249 344 246 335Q246 329 231 291T200 202T182 113Q182 86 187 69Q200 26 250 26Q287 26 319 60T369 139T398 222T409 277Q409 300 401 317T383 343T365 361T357 383Q357 405 376 424T417 443Q436 443 451 425T467 367Q467 340 455 284T418 159T347 40T241 -11Q177 -11 139 22Q102 54 102 117Q102 148 110 181T151 298Q173 362 173 380Z"/>
          <path id="prefig-test2-MJX-4-TEX-N-20D7" d="M377 694Q377 702 382 708T397 714Q404 714 409 709Q414 705 419 690Q429 653 460 633Q471 626 471 615Q471 606 468 603T454 594Q411 572 379 531Q377 529 374 525T369 519T364 517T357 516Q350 516 344 521T337 536Q337 555 384 595H213L42 596Q29 605 29 615Q29 622 42 635H401Q377 673 377 694Z"/>
          <path id="prefig-test2-MJX-4-TEX-N-31" d="M213 578L200 573Q186 568 160 563T102 556H83V602H102Q149 604 189 617T245 641T273 663Q275 666 285 666Q294 666 302 660V361L303 61Q310 54 315 52T339 48T401 46H427V0H416Q395 3 257 3Q121 3 100 0H88V46H114Q136 46 152 46T177 47T193 50T201 52T207 57T213 61V578Z"/>
          <path id="prefig-test2-MJX-4-TEX-N-2B" d="M56 237T56 250T70 270H369V420L370 570Q380 583 389 583Q402 583 409 568V270H707Q722 262 722 250T707 230H409V-68Q401 -82 391 -82H389H387Q375 -82 369 -68V230H70Q56 237 56 250Z"/>
          <path id="prefig-test2-MJX-4-TEX-N-32" d="M109 429Q82 429 66 447T50 491Q50 562 103 614T235 666Q326 666 387 610T449 465Q449 422 429 383T381 315T301 241Q265 210 201 149L142 93L218 92Q375 92 385 97Q392 99 409 186V189H449V186Q448 183 436 95T421 3V0H50V19V31Q50 38 56 46T86 81Q115 113 136 137Q145 147 170 174T204 211T233 244T261 278T284 308T305 340T320 369T333 401T340 431T343 464Q343 527 309 573T212 619Q179 619 154 602T119 569T109 550Q109 549 114 549Q132 549 151 535T170 489Q170 464 154 447T109 429Z"/>
        </defs>
        <g stroke="currentColor" fill="currentColor" stroke-width="0" transform="scale(1,-1)">
          <g data-mml-node="math" data-semantic-type="infixop" data-semantic-role="addition" data-semantic-id="17" data-semantic-children="14,16" data-semantic-content="6" data-semantic-speech="3 ModifyingAbove v With right arrow Subscript 1 plus 2 ModifyingAbove v With right arrow Subscript 2">
            <g data-mml-node="mrow" data-semantic-type="infixop" data-semantic-role="implicit" data-semantic-annotation="clearspeak:unit" data-semantic-id="14" data-semantic-children="0,5" data-semantic-content="13" data-semantic-parent="17" data-semantic-speech="3 ModifyingAbove v With right arrow Subscript 1">
              <g data-mml-node="mn" data-semantic-type="number" data-semantic-role="integer" data-semantic-font="normal" data-semantic-annotation="clearspeak:simple" data-semantic-id="0" data-semantic-parent="14" data-semantic-speech="3">
                <use data-c="33" xlink:href="#prefig-test2-MJX-4-TEX-N-33"/>
              </g>
              <g data-mml-node="mo" data-semantic-type="operator" data-semantic-role="multiplication" data-semantic-id="13" data-semantic-parent="14" data-semantic-added="true" data-semantic-operator="infixop,⁢" data-semantic-speech="times" transform="translate(500,0)">
                <use data-c="2062" xlink:href="#prefig-test2-MJX-4-TEX-N-2062"/>
              </g>
              <g data-mml-node="msub" data-semantic-type="subscript" data-semantic-role="latinletter" data-semantic-id="5" data-semantic-children="3,4" data-semantic-parent="14" data-semantic-speech="ModifyingAbove v With right arrow Subscript 1" transform="translate(500,0)">
                <g data-mml-node="TeXAtom" data-mjx-texclass="ORD">
                  <g data-mml-node="TeXAtom" data-mjx-texclass="ORD">
                    <g data-mml-node="mover" data-semantic-type="overscore" data-semantic-role="latinletter" data-semantic-id="3" data-semantic-children="1,2" data-semantic-parent="5" data-semantic-attributes="texclass:ORD" data-semantic-speech="ModifyingAbove v With right arrow" data-semantic-prefix="Base">
                      <g data-mml-node="mi" data-semantic-type="identifier" data-semantic-role="latinletter" data-semantic-font="italic" data-semantic-annotation="clearspeak:simple" data-semantic-id="1" data-semantic-parent="3" data-semantic-speech="v" data-semantic-prefix="Base">
                        <use data-c="1D463" xlink:href="#prefig-test2-MJX-4-TEX-I-1D463"/>
                      </g>
                      <g data-mml-node="mo" data-semantic-type="relation" data-semantic-role="overaccent" data-semantic-annotation="accent:arrow" data-semantic-id="2" data-semantic-parent="3" data-semantic-speech="right arrow" data-semantic-prefix="Overscript" transform="translate(270.3,32) translate(-250 0)">
                        <use data-c="20D7" xlink:href="#prefig-test2-MJX-4-TEX-N-20D7"/>
                      </g>
                    </g>
                  </g>
                </g>
                <g data-mml-node="mn" transform="translate(518,-150) scale(0.707)" data-semantic-type="number" data-semantic-role="integer" data-semantic-font="normal" data-semantic-annotation="clearspeak:simple" data-semantic-id="4" data-semantic-parent="5" data-semantic-speech="1" data-semantic-prefix="Subscript">
                  <use data-c="31" xlink:href="#prefig-test2-MJX-4-TEX-N-31"/>
                </g>
              </g>
            </g>
            <g data-mml-node="mo" data-semantic-type="operator" data-semantic-role="addition" data-semantic-id="6" data-semantic-parent="17" data-semantic-operator="infixop,+" data-semantic-speech="plus" transform="translate(1643.8,0)">
              <use data-c="2B" xlink:href="#prefig-test2-MJX-4-TEX-N-2B"/>
            </g>
            <g data-mml-node="mrow" data-semantic-type="infixop" data-semantic-role="implicit" data-semantic-annotation="clearspeak:unit" data-semantic-id="16" data-semantic-children="7,12" data-semantic-content="15" data-semantic-parent="17" data-semantic-speech="2 ModifyingAbove v With right arrow Subscript 2" transform="translate(2644,0)">
              <g data-mml-node="mn" data-semantic-type="number" data-semantic-role="integer" data-semantic-font="normal" data-semantic-annotation="clearspeak:simple" data-semantic-id="7" data-semantic-parent="16" data-semantic-speech="2">
                <use data-c="32" xlink:href="#prefig-test2-MJX-4-TEX-N-32"/>
              </g>
              <g data-mml-node="mo" data-semantic-type="operator" data-semantic-role="multiplication" data-semantic-id="15" data-semantic-parent="16" data-semantic-added="true" data-semantic-operator="infixop,⁢" data-semantic-speech="times" transform="translate(500,0)">
                <use data-c="2062" xlink:href="#prefig-test2-MJX-4-TEX-N-2062"/>
              </g>
              <g data-mml-node="msub" data-semantic-type="subscript" data-semantic-role="latinletter" data-semantic-id="12" data-semantic-children="10,11" data-semantic-parent="16" data-semantic-speech="ModifyingAbove v With right arrow Subscript 2" transform="translate(500,0)">
                <g data-mml-node="TeXAtom" data-mjx-texclass="ORD">
                  <g data-mml-node="TeXAtom" data-mjx-texclass="ORD">
                    <g data-mml-node="mover" data-semantic-type="overscore" data-semantic-role="latinletter" data-semantic-id="10" data-semantic-children="8,9" data-semantic-parent="12" data-semantic-attributes="texclass:ORD" data-semantic-speech="ModifyingAbove v With right arrow" data-semantic-prefix="Base">
                      <g data-mml-node="mi" data-semantic-type="identifier" data-semantic-role="latinletter" data-semantic-font="italic" data-semantic-annotation="clearspeak:simple" data-semantic-id="8" data-semantic-parent="10" data-semantic-speech="v" data-semantic-prefix="Base">
                        <use data-c="1D463" xlink:href="#prefig-test2-MJX-4-TEX-I-1D463"/>
                      </g>
                      <g data-mml-node="mo" data-semantic-type="relation" data-semantic-role="overaccent" data-semantic-annotation="accent:arrow" data-semantic-id="9" data-semantic-parent="10" data-semantic-speech="right arrow" data-semantic-prefix="Overscript" transform="translate(270.3,32) translate(-250 0)">
                        <use data-c="20D7" xlink:href="#prefig-test2-MJX-4-TEX-N-20D7"/>
                      </g>
                    </g>
                  </g>
                </g>
                <g data-mml-node="mn" transform="translate(518,-150) scale(0.707)" data-semantic-type="number" data-semantic-role="integer" data-semantic-font="normal" data-semantic-annotation="clearspeak:simple" data-semantic-id="11" data-semantic-parent="12" data-semantic-speech="2" data-semantic-prefix="Subscript">
                  <use data-c="32" xlink:href="#prefig-test2-MJX-4-TEX-N-32"/>
                </g>
              </g>
            </g>
          </g>
        </g>
      </svg>
    </g>
  </g>
</svg>
