<svg xmlns="http://www.w3.org/2000/svg" id="prefigure-projection-figure" width="310" height="310" viewBox="0 0 310 310">
  <defs>
    <clipPath id="prefigure-projection-clipPath-0">
      <rect x="5.0" y="5.0" width="300.0" height="300.0"/>
    </clipPath>
    <clipPath id="prefigure-projection-clipPath-1">
      <rect x="5.0" y="5.0" width="300.0" height="300.0"/>
    </clipPath>
    <marker id="prefigure-projection-arrow-head-end-4_None_24_60-h777" markerWidth="18.0" markerHeight="16.0" markerUnits="userSpaceOnUse" orient="auto-start-reverse" refX="13.1" refY="8.0">
      <path d="M 18.0 8.0L 0.0 16.0L 3.5 10.0L 3.5 6.0L 0.0 0.0Z" fill="#777" stroke="none"/>
    </marker>
    <marker id="prefigure-projection-arrow-head-end-4_None_24_60-h777-outline" markerWidth="22.0" markerHeight="20.0" markerUnits="userSpaceOnUse" orient="auto-start-reverse" refX="15.1" refY="10.0">
      <path d="M 20.8 11.8 L 2.8 19.8 A 2 2 0 0 1 0.0 18.0 L 0.0 2.0 A 2 2 0 0 1 2.8 0.2 L 20.8 8.2 A 2 2 0 0 1 20.8 11.8 Z" fill="white" stroke="none"/>
    </marker>
    <marker id="prefigure-projection-arrow-head-end-4_None_24_60-black" markerWidth="18.0" markerHeight="16.0" markerUnits="userSpaceOnUse" orient="auto-start-reverse" refX="13.1" refY="8.0">
      <path d="M 18.0 8.0L 0.0 16.0L 3.5 10.0L 3.5 6.0L 0.0 0.0Z" fill="black" stroke="none"/>
    </marker>
    <marker id="prefigure-projection-arrow-head-end-4_None_24_60-black-outline" markerWidth="22.0" markerHeight="20.0" markerUnits="userSpaceOnUse" orient="auto-start-reverse" refX="15.1" refY="10.0">
      <path d="M 20.8 11.8 L 2.8 19.8 A 2 2 0 0 1 0.0 18.0 L 0.0 2.0 A 2 2 0 0 1 2.8 0.2 L 20.8 8.2 A 2 2 0 0 1 20.8 11.8 Z" fill="white" stroke="none"/>
    </marker>
    <marker id="prefigure-projection-arrow-head-end-4_None_24_60-red" markerWidth="18.0" markerHeight="16.0" markerUnits="userSpaceOnUse" orient="auto-start-reverse" refX="13.1" refY="8.0">
      <path d="M 18.0 8.0L 0.0 16.0L 3.5 10.0L 3.5 6.0L 0.0 0.0Z" fill="red" stroke="none"/>
    </marker>
    <marker id="prefigure-projection-arrow-head-end-4_None_24_60-red-outline" markerWidth="22.0" markerHeight="20.0" markerUnits="userSpaceOnUse" orient="auto-start-reverse" refX="15.1" refY="10.0">
      <path d="M 20.8 11.8 L 2.8 19.8 A 2 2 0 0 1 0.0 18.0 L 0.0 2.0 A 2 2 0 0 1 2.8 0.2 L 20.8 8.2 A 2 2 0 0 1 20.8 11.8 Z" fill="white" stroke="none"/>
    </marker>
  </defs>
  <g id="prefigure-projection-grid-axes">
    <g id="prefigure-projection-grid" stroke="#ccc" stroke-width="1">
      <line x1="5.0" y1="305.0" x2="5.0" y2="5.0"/>
      <line x1="55.0" y1="305.0" x2="55.0" y2="5.0"/>
      <line x1="105.0" y1="305.0" x2="105.0" y2="5.0"/>
      <line x1="155.0" y1="305.0" x2="155.0" y2="5.0"/>
      <line x1="205.0" y1="305.0" x2="205.0" y2="5.0"/>
      <line x1="255.0" y1="305.0" x2="255.0" y2="5.0"/>
      <line x1="305.0" y1="305.0" x2="305.0" y2="5.0"/>
      <line x1="5.0" y1="305.0" x2="305.0" y2="305.0"/>
      <line x1="5.0" y1="255.0" x2="305.0" y2="255.0"/>
      <line x1="5.0" y1="205.0" x2="305.0" y2="205.0"/>
      <line x1="5.0" y1="155.0" x2="305.0" y2="155.0"/>
      <line x1="5.0" y1="105.0" x2="305.0" y2="105.0"/>
      <line x1="5.0" y1="55.0" x2="305.0" y2="55.0"/>
      <line x1="5.0" y1="5.0" x2="305.0" y2="5.0"/>
    </g>
    <g id="prefigure-projection-axes" stroke="black" stroke-width="2">
      <line id="prefigure-projection-line-14" x1="5.0" y1="255.0" x2="305.0" y2="255.0" stroke="black" stroke-width="2"/>
      <g>
        <line id="prefigure-projection-line-15" x1="155.0" y1="258.0" x2="155.0" y2="252.0"/>
        <line id="prefigure-projection-line-16" x1="255.0" y1="258.0" x2="255.0" y2="252.0"/>
      </g>
      <line id="prefigure-projection-line-17" x1="55.0" y1="305.0" x2="55.0" y2="5.0" stroke="black" stroke-width="2"/>
      <g>
        <line id="prefigure-projection-line-18" x1="52.0" y1="155.0" x2="58.0" y2="155.0"/>
        <line id="prefigure-projection-line-19" x1="52.0" y1="55.0" x2="58.0" y2="55.0"/>
      </g>
    </g>
    <g id="prefigure-projection-label-0" transform="translate(155.0,266.0) translate(-4.5,-0.0)">
      <g id="prefigure-projection-g-0">
        <svg xmlns:xlink="http://www.w3.org/1999/xlink" style="vertical-align: 0.000px" width="9.048px" height="12.056px" role="img" focusable="false" viewBox="0 -666 500 666" x="0.0" y="0.0">
          <defs>
            <path id="prefigure-projection-MJX-2-TEX-N-32" d="M109 429Q82 429 66 447T50 491Q50 562 103 614T235 666Q326 666 387 610T449 465Q449 422 429 383T381 315T301 241Q265 210 201 149L142 93L218 92Q375 92 385 97Q392 99 409 186V189H449V186Q448 183 436 95T421 3V0H50V19V31Q50 38 56 46T86 81Q115 113 136 137Q145 147 170 174T204 211T233 244T261 278T284 308T305 340T320 369T333 401T340 431T343 464Q343 527 309 573T212 619Q179 619 154 602T119 569T109 550Q109 549 114 549Q132 549 151 535T170 489Q170 464 154 447T109 429Z"/>
          </defs>
          <g stroke="currentColor" fill="currentColor" stroke-width="0" transform="scale(1,-1)">
            <g data-mml-node="math">
              <g data-mml-node="mtext" data-semantic-type="text" data-semantic-role="integer" data-semantic-font="normal" data-semantic-annotation="clearspeak:unit" data-semantic-id="0" data-semantic-speech="2">
                <use data-c="32" xlink:href="#prefigure-projection-MJX-2-TEX-N-32"/>
              </g>
            </g>
          </g>
        </svg>
      </g>
    </g>
    <g id="prefigure-projection-label-1" transform="translate(255.0,266.0) translate(-4.5,-0.0)">
      <g id="prefigure-projection-g-1">
        <svg xmlns:xlink="http://www.w3.org/1999/xlink" style="vertical-align: 0.000px" width="9.048px" height="12.256px" role="img" focusable="false" viewBox="0 -677 500 677" x="0.0" y="0.0">
          <defs>
            <path id="prefigure-projection-MJX-3-TEX-N-34" d="M462 0Q444 3 333 3Q217 3 199 0H190V46H221Q241 46 248 46T265 48T279 53T286 61Q287 63 287 115V165H28V211L179 442Q332 674 334 675Q336 677 355 677H373L379 671V211H471V165H379V114Q379 73 379 66T385 54Q393 47 442 46H471V0H462ZM293 211V545L74 212L183 211H293Z"/>
          </defs>
          <g stroke="currentColor" fill="currentColor" stroke-width="0" transform="scale(1,-1)">
            <g data-mml-node="math">
              <g data-mml-node="mtext" data-semantic-type="text" data-semantic-role="integer" data-semantic-font="normal" data-semantic-annotation="clearspeak:unit" data-semantic-id="0" data-semantic-speech="4">
                <use data-c="34" xlink:href="#prefigure-projection-MJX-3-TEX-N-34"/>
              </g>
            </g>
          </g>
        </svg>
      </g>
    </g>
    <g id="prefigure-projection-label-2" transform="translate(44.0,155.0) translate(-9.0,-6.0)">
      <g id="prefigure-projection-g-2">
        <svg xmlns:xlink="http://www.w3.org/1999/xlink" style="vertical-align: 0.000px" width="9.048px" height="12.056px" role="img" focusable="false" viewBox="0 -666 500 666" x="0.0" y="0.0">
          <defs>
            <path id="prefigure-projection-MJX-4-TEX-N-32" d="M109 429Q82 429 66 447T50 491Q50 562 103 614T235 666Q326 666 387 610T449 465Q449 422 429 383T381 315T301 241Q265 210 201 149L142 93L218 92Q375 92 385 97Q392 99 409 186V189H449V186Q448 183 436 95T421 3V0H50V19V31Q50 38 56 46T86 81Q115 113 136 137Q145 147 170 174T204 211T233 244T261 278T284 308T305 340T320 369T333 401T340 431T343 464Q343 527 309 573T212 619Q179 619 154 602T119 569T109 550Q109 549 114 549Q132 549 151 535T170 489Q170 464 154 447T109 429Z"/>
          </defs>
          <g stroke="currentColor" fill="currentColor" stroke-width="0" transform="scale(1,-1)">
            <g data-mml-node="math">
              <g data-mml-node="mtext" data-semantic-type="text" data-semantic-role="integer" data-semantic-font="normal" data-semantic-annotation="clearspeak:unit" data-semantic-id="0" data-semantic-speech="2">
                <use data-c="32" xlink:href="#prefigure-projection-MJX-4-TEX-N-32"/>
              </g>
            </g>
          </g>
        </svg>
      </g>
    </g>
    <g id="prefigure-projection-label-3" transform="translate(44.0,55.0) translate(-9.0,-6.1)">
      <g id="prefigure-projection-g-3">
        <svg xmlns:xlink="http://www.w3.org/1999/xlink" style="vertical-align: 0.000px" width="9.048px" height="12.256px" role="img" focusable="false" viewBox="0 -677 500 677" x="0.0" y="0.0">
          <defs>
            <path id="prefigure-projection-MJX-5-TEX-N-34" d="M462 0Q444 3 333 3Q217 3 199 0H190V46H221Q241 46 248 46T265 48T279 53T286 61Q287 63 287 115V165H28V211L179 442Q332 674 334 675Q336 677 355 677H373L379 671V211H471V165H379V114Q379 73 379 66T385 54Q393 47 442 46H471V0H462ZM293 211V545L74 212L183 211H293Z"/>
          </defs>
          <g stroke="currentColor" fill="currentColor" stroke-width="0" transform="scale(1,-1)">
            <g data-mml-node="math">
              <g data-mml-node="mtext" data-semantic-type="text" data-semantic-role="integer" data-semantic-font="normal" data-semantic-annotation="clearspeak:unit" data-semantic-id="0" data-semantic-speech="4">
                <use data-c="34" xlink:href="#prefigure-projection-MJX-5-TEX-N-34"/>
              </g>
            </g>
          </g>
        </svg>
      </g>
    </g>
  </g>
  <line id="prefigure-projection-line-20" x1="5.0" y1="280.0" x2="305.0" y2="130.0" stroke="black" stroke-width="2" fill="none"/>
  <g id="prefigure-projection-label-4" transform="translate(275.0,130.0) translate(-6.2,-6.2)">
    <g id="prefigure-projection-g-4">
      <svg xmlns:xlink="http://www.w3.org/1999/xlink" style="vertical-align: 0.000px" width="12.328px" height="12.360px" role="img" focusable="false" viewBox="0 -683 681 683" x="0.0" y="0.0">
        <defs>
          <path id="prefigure-projection-MJX-6-TEX-I-1D43F" d="M228 637Q194 637 192 641Q191 643 191 649Q191 673 202 682Q204 683 217 683Q271 680 344 680Q485 680 506 683H518Q524 677 524 674T522 656Q517 641 513 637H475Q406 636 394 628Q387 624 380 600T313 336Q297 271 279 198T252 88L243 52Q243 48 252 48T311 46H328Q360 46 379 47T428 54T478 72T522 106T564 161Q580 191 594 228T611 270Q616 273 628 273H641Q647 264 647 262T627 203T583 83T557 9Q555 4 553 3T537 0T494 -1Q483 -1 418 -1T294 0H116Q32 0 32 10Q32 17 34 24Q39 43 44 45Q48 46 59 46H65Q92 46 125 49Q139 52 144 61Q147 65 216 339T285 628Q285 635 228 637Z"/>
        </defs>
        <g stroke="currentColor" fill="currentColor" stroke-width="0" transform="scale(1,-1)">
          <g data-mml-node="math">
            <g data-mml-node="mi" data-semantic-type="identifier" data-semantic-role="latinletter" data-semantic-font="italic" data-semantic-annotation="clearspeak:simple" data-semantic-id="0" data-semantic-speech="upper L">
              <use data-c="1D43F" xlink:href="#prefigure-projection-MJX-6-TEX-I-1D43F"/>
            </g>
          </g>
        </g>
      </svg>
    </g>
  </g>
  <path id="prefigure-projection-path-0" stroke="#777" stroke-width="4" fill="none" d="M 215.0 175.0 L 155.0 55.0" marker-end="url(#prefigure-projection-arrow-head-end-4_None_24_60-h777)"/>
  <g id="prefigure-projection-label-5" transform="translate(189.0,111.0) translate(0.0,-21.7)">
    <g id="prefigure-projection-g-5">
      <svg xmlns:xlink="http://www.w3.org/1999/xlink" style="vertical-align: -4.528px" width="56.200px" height="21.712px" role="img" focusable="false" viewBox="0 -949.4 3105.1 1199.4" x="0.0" y="0.0">
        <defs>
          <path id="prefigure-projection-MJX-7-TEX-N-5C" d="M56 731Q56 740 62 745T75 750Q85 750 92 740Q96 733 270 255T444 -231Q444 -239 438 -244T424 -250Q414 -250 407 -240Q404 -236 230 242T56 731Z"/>
          <path id="prefigure-projection-MJX-7-TEX-N-62" d="M307 -11Q234 -11 168 55L158 37Q156 34 153 28T147 17T143 10L138 1L118 0H98V298Q98 599 97 603Q94 622 83 628T38 637H20V660Q20 683 22 683L32 684Q42 685 61 686T98 688Q115 689 135 690T165 693T176 694H179V543Q179 391 180 391L183 394Q186 397 192 401T207 411T228 421T254 431T286 439T323 442Q401 442 461 379T522 216Q522 115 458 52T307 -11ZM182 98Q182 97 187 90T196 79T206 67T218 55T233 44T250 35T271 29T295 26Q330 26 363 46T412 113Q424 148 424 212Q424 287 412 323Q385 405 300 405Q270 405 239 390T188 347L182 339V98Z"/>
          <path id="prefigure-projection-MJX-7-TEX-N-76" d="M338 431Q344 429 422 429Q479 429 503 431H508V385H497Q439 381 423 345Q421 341 356 172T288 -2Q283 -11 263 -11Q244 -11 239 -2Q99 359 98 364Q93 378 82 381T43 385H19V431H25L33 430Q41 430 53 430T79 430T104 429T122 428Q217 428 232 431H240V385H226Q187 384 184 370Q184 366 235 234L286 102L377 341V349Q377 363 367 372T349 383T335 385H331V431H338Z"/>
          <path id="prefigure-projection-MJX-7-TEX-N-65" d="M28 218Q28 273 48 318T98 391T163 433T229 448Q282 448 320 430T378 380T406 316T415 245Q415 238 408 231H126V216Q126 68 226 36Q246 30 270 30Q312 30 342 62Q359 79 369 104L379 128Q382 131 395 131H398Q415 131 415 121Q415 117 412 108Q393 53 349 21T250 -11Q155 -11 92 58T28 218ZM333 275Q322 403 238 411H236Q228 411 220 410T195 402T166 381T143 340T127 274V267H333V275Z"/>
          <path id="prefigure-projection-MJX-7-TEX-N-63" d="M370 305T349 305T313 320T297 358Q297 381 312 396Q317 401 317 402T307 404Q281 408 258 408Q209 408 178 376Q131 329 131 219Q131 137 162 90Q203 29 272 29Q313 29 338 55T374 117Q376 125 379 127T395 129H409Q415 123 415 120Q415 116 411 104T395 71T366 33T318 2T249 -11Q163 -11 99 53T34 214Q34 318 99 383T250 448T370 421T404 357Q404 334 387 320Z"/>
          <path id="prefigure-projection-MJX-7-TEX-N-22A5" d="M369 652Q369 653 370 655T372 658T375 662T379 665T384 667T391 668Q402 666 409 653V40H708Q723 32 723 20T708 0H71Q70 0 67 2T59 9T55 20T59 31T66 38T71 40H369V652Z"/>
        </defs>
        <g stroke="currentColor" fill="currentColor" stroke-width="0" transform="scale(1,-1)">
          <g data-mml-node="math">
            <g data-mml-node="msup" data-semantic-type="superscript" data-semantic-role="unknown" data-semantic-id="2" data-semantic-children="0,1" data-semantic-speech="backslash bvec Superscript up tack">
              <g data-mml-node="mtext" fill="red" stroke="red" data-semantic-type="text" data-semantic-role="unknown" data-semantic-font="normal" data-semantic-annotation="clearspeak:unit" data-semantic-id="0" data-semantic-parent="2" data-semantic-speech="backslash bvec" data-semantic-prefix="Base">
                <use data-c="5C" xlink:href="#prefigure-projection-MJX-7-TEX-N-5C"/>
                <use data-c="62" xlink:href="#prefigure-projection-MJX-7-TEX-N-62" transform="translate(500,0)"/>
                <use data-c="76" xlink:href="#prefigure-projection-MJX-7-TEX-N-76" transform="translate(1056,0)"/>
                <use data-c="65" xlink:href="#prefigure-projection-MJX-7-TEX-N-65" transform="translate(1584,0)"/>
                <use data-c="63" xlink:href="#prefigure-projection-MJX-7-TEX-N-63" transform="translate(2028,0)"/>
              </g>
              <g data-mml-node="mo" transform="translate(2505,477.1) scale(0.707)" data-semantic-type="operator" data-semantic-role="addition" data-semantic-id="1" data-semantic-parent="2" data-semantic-speech="up tack" data-semantic-prefix="Exponent">
                <use data-c="22A5" xlink:href="#prefigure-projection-MJX-7-TEX-N-22A5"/>
              </g>
            </g>
          </g>
        </g>
      </svg>
    </g>
  </g>
  <path id="prefigure-projection-path-1" stroke="black" stroke-width="4" fill="none" d="M 55.0 255.0 L 155.0 55.0" marker-end="url(#prefigure-projection-arrow-head-end-4_None_24_60-black)"/>
  <g id="prefigure-projection-label-6" transform="translate(151.0,51.0) translate(-44.7,-18.1)">
    <g id="prefigure-projection-g-6">
      <svg xmlns:xlink="http://www.w3.org/1999/xlink" style="vertical-align: -4.528px" width="44.744px" height="18.096px" role="img" focusable="false" viewBox="0 -750 2472 1000" x="0.0" y="0.0">
        <defs>
          <path id="prefigure-projection-MJX-8-TEX-N-5C" d="M56 731Q56 740 62 745T75 750Q85 750 92 740Q96 733 270 255T444 -231Q444 -239 438 -244T424 -250Q414 -250 407 -240Q404 -236 230 242T56 731Z"/>
          <path id="prefigure-projection-MJX-8-TEX-N-62" d="M307 -11Q234 -11 168 55L158 37Q156 34 153 28T147 17T143 10L138 1L118 0H98V298Q98 599 97 603Q94 622 83 628T38 637H20V660Q20 683 22 683L32 684Q42 685 61 686T98 688Q115 689 135 690T165 693T176 694H179V543Q179 391 180 391L183 394Q186 397 192 401T207 411T228 421T254 431T286 439T323 442Q401 442 461 379T522 216Q522 115 458 52T307 -11ZM182 98Q182 97 187 90T196 79T206 67T218 55T233 44T250 35T271 29T295 26Q330 26 363 46T412 113Q424 148 424 212Q424 287 412 323Q385 405 300 405Q270 405 239 390T188 347L182 339V98Z"/>
          <path id="prefigure-projection-MJX-8-TEX-N-76" d="M338 431Q344 429 422 429Q479 429 503 431H508V385H497Q439 381 423 345Q421 341 356 172T288 -2Q283 -11 263 -11Q244 -11 239 -2Q99 359 98 364Q93 378 82 381T43 385H19V431H25L33 430Q41 430 53 430T79 430T104 429T122 428Q217 428 232 431H240V385H226Q187 384 184 370Q184 366 235 234L286 102L377 341V349Q377 363 367 372T349 383T335 385H331V431H338Z"/>
          <path id="prefigure-projection-MJX-8-TEX-N-65" d="M28 218Q28 273 48 318T98 391T163 433T229 448Q282 448 320 430T378 380T406 316T415 245Q415 238 408 231H126V216Q126 68 226 36Q246 30 270 30Q312 30 342 62Q359 79 369 104L379 128Q382 131 395 131H398Q415 131 415 121Q415 117 412 108Q393 53 349 21T250 -11Q155 -11 92 58T28 218ZM333 275Q322 403 238 411H236Q228 411 220 410T195 402T166 381T143 340T127 274V267H333V275Z"/>
          <path id="prefigure-projection-MJX-8-TEX-N-63" d="M370 305T349 305T313 320T297 358Q297 381 312 396Q317 401 317 402T307 404Q281 408 258 408Q209 408 178 376Q131 329 131 219Q131 137 162 90Q203 29 272 29Q313 29 338 55T374 117Q376 125 379 127T395 129H409Q415 123 415 120Q415 116 411 104T395 71T366 33T318 2T249 -11Q163 -11 99 53T34 214Q34 318 99 383T250 448T370 421T404 357Q404 334 387 320Z"/>
        </defs>
        <g stroke="currentColor" fill="currentColor" stroke-width="0" transform="scale(1,-1)">
          <g data-mml-node="math">
            <g data-mml-node="mtext" fill="red" stroke="red" data-semantic-type="text" data-semantic-role="unknown" data-semantic-font="normal" data-semantic-annotation="clearspeak:unit" data-semantic-id="0" data-semantic-speech="backslash bvec">
              <use data-c="5C" xlink:href="#prefigure-projection-MJX-8-TEX-N-5C"/>
              <use data-c="62" xlink:href="#prefigure-projection-MJX-8-TEX-N-62" transform="translate(500,0)"/>
              <use data-c="76" xlink:href="#prefigure-projection-MJX-8-TEX-N-76" transform="translate(1056,0)"/>
              <use data-c="65" xlink:href="#prefigure-projection-MJX-8-TEX-N-65" transform="translate(1584,0)"/>
              <use data-c="63" xlink:href="#prefigure-projection-MJX-8-TEX-N-63" transform="translate(2028,0)"/>
            </g>
          </g>
        </g>
      </svg>
    </g>
  </g>
  <path id="prefigure-projection-path-2" stroke="red" stroke-width="4" fill="none" d="M 55.0 255.0 L 215.0 175.0" marker-end="url(#prefigure-projection-arrow-head-end-4_None_24_60-red)"/>
  <g id="prefigure-projection-label-7" transform="translate(219.0,179.0) translate(0.0,-0.0)">
    <g id="prefigure-projection-g-7">
      <svg xmlns:xlink="http://www.w3.org/1999/xlink" style="vertical-align: -4.528px" width="44.744px" height="26.952px" role="img" focusable="false" viewBox="0 -1239 2472 1489" x="0.0" y="0.0">
        <defs>
          <path id="prefigure-projection-MJX-9-TEX-N-5C" d="M56 731Q56 740 62 745T75 750Q85 750 92 740Q96 733 270 255T444 -231Q444 -239 438 -244T424 -250Q414 -250 407 -240Q404 -236 230 242T56 731Z"/>
          <path id="prefigure-projection-MJX-9-TEX-N-62" d="M307 -11Q234 -11 168 55L158 37Q156 34 153 28T147 17T143 10L138 1L118 0H98V298Q98 599 97 603Q94 622 83 628T38 637H20V660Q20 683 22 683L32 684Q42 685 61 686T98 688Q115 689 135 690T165 693T176 694H179V543Q179 391 180 391L183 394Q186 397 192 401T207 411T228 421T254 431T286 439T323 442Q401 442 461 379T522 216Q522 115 458 52T307 -11ZM182 98Q182 97 187 90T196 79T206 67T218 55T233 44T250 35T271 29T295 26Q330 26 363 46T412 113Q424 148 424 212Q424 287 412 323Q385 405 300 405Q270 405 239 390T188 347L182 339V98Z"/>
          <path id="prefigure-projection-MJX-9-TEX-N-76" d="M338 431Q344 429 422 429Q479 429 503 431H508V385H497Q439 381 423 345Q421 341 356 172T288 -2Q283 -11 263 -11Q244 -11 239 -2Q99 359 98 364Q93 378 82 381T43 385H19V431H25L33 430Q41 430 53 430T79 430T104 429T122 428Q217 428 232 431H240V385H226Q187 384 184 370Q184 366 235 234L286 102L377 341V349Q377 363 367 372T349 383T335 385H331V431H338Z"/>
          <path id="prefigure-projection-MJX-9-TEX-N-65" d="M28 218Q28 273 48 318T98 391T163 433T229 448Q282 448 320 430T378 380T406 316T415 245Q415 238 408 231H126V216Q126 68 226 36Q246 30 270 30Q312 30 342 62Q359 79 369 104L379 128Q382 131 395 131H398Q415 131 415 121Q415 117 412 108Q393 53 349 21T250 -11Q155 -11 92 58T28 218ZM333 275Q322 403 238 411H236Q228 411 220 410T195 402T166 381T143 340T127 274V267H333V275Z"/>
          <path id="prefigure-projection-MJX-9-TEX-N-63" d="M370 305T349 305T313 320T297 358Q297 381 312 396Q317 401 317 402T307 404Q281 408 258 408Q209 408 178 376Q131 329 131 219Q131 137 162 90Q203 29 272 29Q313 29 338 55T374 117Q376 125 379 127T395 129H409Q415 123 415 120Q415 116 411 104T395 71T366 33T318 2T249 -11Q163 -11 99 53T34 214Q34 318 99 383T250 448T370 421T404 357Q404 334 387 320Z"/>
          <path id="prefigure-projection-MJX-9-TEX-S4-2C6" d="M5 561Q-4 561 -9 582T-14 618Q-14 623 -13 625Q-11 628 461 736T943 845Q945 845 1417 738T1896 628Q1902 628 1902 618Q1902 607 1897 584T1883 561Q1881 561 1412 654L945 750L476 654Q6 561 5 561Z"/>
        </defs>
        <g stroke="currentColor" fill="currentColor" stroke-width="0" transform="scale(1,-1)">
          <g data-mml-node="math">
            <g data-mml-node="TeXAtom" data-mjx-texclass="ORD">
              <g data-mml-node="mover" data-semantic-type="overscore" data-semantic-role="unknown" data-semantic-id="2" data-semantic-children="0,1" data-semantic-attributes="texclass:ORD" data-semantic-speech="ModifyingAbove backslash bvec With caret">
                <g data-mml-node="mtext" fill="red" stroke="red" data-semantic-type="text" data-semantic-role="unknown" data-semantic-font="normal" data-semantic-annotation="clearspeak:unit" data-semantic-id="0" data-semantic-parent="2" data-semantic-speech="backslash bvec" data-semantic-prefix="Base">
                  <use data-c="5C" xlink:href="#prefigure-projection-MJX-9-TEX-N-5C"/>
                  <use data-c="62" xlink:href="#prefigure-projection-MJX-9-TEX-N-62" transform="translate(500,0)"/>
                  <use data-c="76" xlink:href="#prefigure-projection-MJX-9-TEX-N-76" transform="translate(1056,0)"/>
                  <use data-c="65" xlink:href="#prefigure-projection-MJX-9-TEX-N-65" transform="translate(1584,0)"/>
                  <use data-c="63" xlink:href="#prefigure-projection-MJX-9-TEX-N-63" transform="translate(2028,0)"/>
                </g>
                <g data-mml-node="mo" data-semantic-type="operator" data-semantic-role="overaccent" data-semantic-annotation="accent:unknown" data-semantic-id="1" data-semantic-parent="2" data-semantic-speech="caret" data-semantic-prefix="Overscript" transform="translate(1236,294) translate(-951 0)">
                  <use data-c="2C6" xlink:href="#prefigure-projection-MJX-9-TEX-S4-2C6"/>
                </g>
              </g>
            </g>
          </g>
        </g>
      </svg>
    </g>
  </g>
  <path id="prefigure-projection-path-3" stroke="black" stroke-width="4" fill="none" d="M 55.0 255.0 L 155.0 205.0" marker-end="url(#prefigure-projection-arrow-head-end-4_None_24_60-black)"/>
  <g id="prefigure-projection-label-8" transform="translate(159.0,209.0) translate(0.0,-0.0)">
    <g id="prefigure-projection-g-8">
      <svg xmlns:xlink="http://www.w3.org/1999/xlink" style="vertical-align: -4.528px" width="44.232px" height="18.096px" role="img" focusable="false" viewBox="0 -750 2444 1000" x="0.0" y="0.0">
        <defs>
          <path id="prefigure-projection-MJX-10-TEX-N-5C" d="M56 731Q56 740 62 745T75 750Q85 750 92 740Q96 733 270 255T444 -231Q444 -239 438 -244T424 -250Q414 -250 407 -240Q404 -236 230 242T56 731Z"/>
          <path id="prefigure-projection-MJX-10-TEX-N-76" d="M338 431Q344 429 422 429Q479 429 503 431H508V385H497Q439 381 423 345Q421 341 356 172T288 -2Q283 -11 263 -11Q244 -11 239 -2Q99 359 98 364Q93 378 82 381T43 385H19V431H25L33 430Q41 430 53 430T79 430T104 429T122 428Q217 428 232 431H240V385H226Q187 384 184 370Q184 366 235 234L286 102L377 341V349Q377 363 367 372T349 383T335 385H331V431H338Z"/>
          <path id="prefigure-projection-MJX-10-TEX-N-65" d="M28 218Q28 273 48 318T98 391T163 433T229 448Q282 448 320 430T378 380T406 316T415 245Q415 238 408 231H126V216Q126 68 226 36Q246 30 270 30Q312 30 342 62Q359 79 369 104L379 128Q382 131 395 131H398Q415 131 415 121Q415 117 412 108Q393 53 349 21T250 -11Q155 -11 92 58T28 218ZM333 275Q322 403 238 411H236Q228 411 220 410T195 402T166 381T143 340T127 274V267H333V275Z"/>
          <path id="prefigure-projection-MJX-10-TEX-N-63" d="M370 305T349 305T313 320T297 358Q297 381 312 396Q317 401 317 402T307 404Q281 408 258 408Q209 408 178 376Q131 329 131 219Q131 137 162 90Q203 29 272 29Q313 29 338 55T374 117Q376 125 379 127T395 129H409Q415 123 415 120Q415 116 411 104T395 71T366 33T318 2T249 -11Q163 -11 99 53T34 214Q34 318 99 383T250 448T370 421T404 357Q404 334 387 320Z"/>
        </defs>
        <g stroke="currentColor" fill="currentColor" stroke-width="0" transform="scale(1,-1)">
          <g data-mml-node="math">
            <g data-mml-node="mtext" fill="red" stroke="red" data-semantic-type="text" data-semantic-role="unknown" data-semantic-font="normal" data-semantic-annotation="clearspeak:unit" data-semantic-id="0" data-semantic-speech="backslash vvec">
              <use data-c="5C" xlink:href="#prefigure-projection-MJX-10-TEX-N-5C"/>
              <use data-c="76" xlink:href="#prefigure-projection-MJX-10-TEX-N-76" transform="translate(500,0)"/>
              <use data-c="76" xlink:href="#prefigure-projection-MJX-10-TEX-N-76" transform="translate(1028,0)"/>
              <use data-c="65" xlink:href="#prefigure-projection-MJX-10-TEX-N-65" transform="translate(1556,0)"/>
              <use data-c="63" xlink:href="#prefigure-projection-MJX-10-TEX-N-63" transform="translate(2000,0)"/>
            </g>
          </g>
        </g>
      </svg>
    </g>
  </g>
</svg>
